# xmcd
#
# Track frame offsets:
#	150
#	25429
#	42067
#	63426
#	82292
#	127683
#
# Disc length: 1941 seconds
#
# Revision: 0
# Processed by: cddbd v1.5.1PL0 Copyright (c) Steve Scherf et al.
# Submitted via: EasyCDDAExtractor 5.0.5.1
#
DISCID=48079306
DTITLE=Spoonful - Woman And Blues
DYEAR=2004
DGENRE=Blues
TTITLE0=My Baby Don't Know
TTITLE1=Feelin' Alright
TTITLE2=I'm In Love
TTITLE3=I'm Feel So Sad
TTITLE4=Womand And Blues
TTITLE5=Boogie Man
EXTD=
EXTT0=
EXTT1=
EXTT2=
EXTT3=
EXTT4=
EXTT5=
PLAYORDER=
